<?xml version="1.0" encoding="utf-8"?>
<!-- Generator: Adobe Illustrator 25.3.0, SVG Export Plug-In . SVG Version: 6.00 Build 0)  -->
<svg version="1.1" id="Capa_1" xmlns="http://www.w3.org/2000/svg" xmlns:xlink="http://www.w3.org/1999/xlink" x="0px" y="0px"
	 viewBox="0 0 391.18 73.64" style="enable-background:new 0 0 391.18 73.64;" xml:space="preserve">
<style type="text/css">
	.st0{fill:#EFEEEC;}
</style>
<g>
	<g>
		<path class="st0" d="M67.23,6.11V49.1c0,10-8.14,18.13-18.13,18.13H6.11V6.11H67.23 M73.35,0H0v73.35h49.1
			c13.39,0,24.25-10.86,24.25-24.25V0L73.35,0z"/>
		<path class="st0" d="M18.34,55.01V18.34h42.78v0c0,3.38-2.74,6.11-6.11,6.11H42.78V48.9c0,3.38-2.74,6.11-6.11,6.11h0V24.45H24.45
			V48.9C24.45,52.27,21.71,55.01,18.34,55.01L18.34,55.01z"/>
	</g>
	<g>
		<g>
			<g>
				<path class="st0" d="M109.48,53.62c-1.15-1.85-3-2.12-4.78-2.14c-1.85,0-4.78,0.68-4.78,3.2c0,2.01,2.17,2.48,4.83,2.98
					c3.05,0.59,6.21,1.13,6.21,4.54c-0.02,3.57-3.61,4.42-6.25,4.42c-2.46,0-5.26-1.02-6.48-3.43l1.08-0.54
					c0.97,1.92,3.45,2.87,5.39,2.87c1.94,0,5.03-0.54,5.03-3.34c0.02-2.37-2.59-2.89-5.19-3.39c-2.89-0.56-5.85-1.15-5.85-4.06
					c-0.07-3.34,3.41-4.38,6-4.38c2.26,0,4.22,0.36,5.78,2.69L109.48,53.62z"/>
				<path class="st0" d="M113.4,60.8c0-3.34,2.53-5.76,5.67-5.76c3.14,0,5.94,1.92,5.51,6.27h-10.04c0.22,2.62,2.23,4.13,4.54,4.13
					c1.47,0,3.18-0.59,4.02-1.69l0.79,0.63c-1.08,1.42-3.02,2.14-4.81,2.14C115.93,66.53,113.4,64.34,113.4,60.8z M123.58,60.35
					c-0.02-2.75-1.83-4.29-4.51-4.29c-2.3,0-4.29,1.56-4.54,4.29H123.58z"/>
				<path class="st0" d="M136.4,54.77l0.72,0.63l-1.08,1.26c0.79,0.86,1.38,1.99,1.38,3.79c0,1.94-1.15,3.9-3,4.74
					c1.96,0.7,3.05,2.08,3.05,4c0,3-2.35,4.45-5.3,4.45c-2.96,0-5.28-1.62-5.28-4.45h1.11c0,2.28,1.94,3.36,4.17,3.36
					s4.22-0.99,4.22-3.36c0-2.39-2.14-3.34-4.22-3.34c-3.23,0-5.24-2.42-5.24-5.39c0-3.48,2.35-5.44,5.24-5.44
					c1.13,0,2.3,0.41,3.16,1.02L136.4,54.77z M128.03,60.46c0,2.3,1.58,4.29,4.13,4.29c2.3,0,4.17-1.99,4.17-4.29
					c0-2.82-1.87-4.33-4.17-4.33C129.88,56.12,128.03,57.55,128.03,60.46z"/>
				<path class="st0" d="M148.67,66.37v-2.01c-0.86,1.53-2.42,2.17-3.97,2.19c-2.98,0-5.03-1.83-5.03-4.92V55.2h1.11v6.41
					c0,2.53,1.56,3.88,3.97,3.86c2.3-0.02,3.9-1.76,3.9-4.06V55.2h1.11v11.17H148.67z"/>
				<path class="st0" d="M153.7,55.22l0.04,1.99c0.7-1.51,2.28-2.1,3.7-2.1c0.84-0.02,1.65,0.2,2.39,0.65l-0.5,0.9
					c-0.59-0.36-1.24-0.52-1.9-0.52c-2.08,0.02-3.68,1.69-3.68,3.72v6.5h-1.11V55.22H153.7z"/>
				<path class="st0" d="M162.97,51.59c0,1.17-1.78,1.17-1.78,0C161.19,50.41,162.97,50.41,162.97,51.59z M161.51,55.18v11.19h1.11
					V55.18H161.51z"/>
				<path class="st0" d="M176.47,50.57v15.8h-1.08v-2.46c-0.93,1.69-2.75,2.64-4.65,2.64c-3.11,0-5.57-2.05-5.57-5.75
					c0-3.68,2.48-5.76,5.6-5.76c1.92,0,3.72,0.81,4.63,2.62v-7.09H176.47z M166.25,60.8c0,3.09,2.05,4.67,4.56,4.67
					c2.62,0,4.56-1.92,4.56-4.69c0-2.78-1.99-4.67-4.56-4.67C168.3,56.1,166.25,57.66,166.25,60.8z"/>
				<path class="st0" d="M190.37,55.22c0,3.72,0,7.43,0,11.15h-1.11V64c-1.08,1.74-2.75,2.55-4.56,2.55c-3.11,0-5.66-2.35-5.66-5.75
					c0-3.41,2.55-5.71,5.66-5.71c1.81,0,3.63,0.84,4.56,2.57v-2.44H190.37z M180.14,60.8c0,2.8,2.03,4.67,4.56,4.67
					c6.21,0,6.21-9.32,0-9.32C182.17,56.15,180.14,58,180.14,60.8z"/>
				<path class="st0" d="M204.06,50.57v15.8h-1.08v-2.46c-0.93,1.69-2.75,2.64-4.65,2.64c-3.11,0-5.57-2.05-5.57-5.75
					c0-3.68,2.48-5.76,5.6-5.76c1.92,0,3.72,0.81,4.63,2.62v-7.09H204.06z M193.84,60.8c0,3.09,2.05,4.67,4.56,4.67
					c2.62,0,4.56-1.92,4.56-4.69c0-2.78-1.99-4.67-4.56-4.67C195.89,56.1,193.84,57.66,193.84,60.8z"/>
				<path class="st0" d="M212.81,60.8c0-3.34,2.53-5.76,5.67-5.76c3.14,0,5.94,1.92,5.51,6.27h-10.04c0.22,2.62,2.23,4.13,4.54,4.13
					c1.47,0,3.18-0.59,4.02-1.69l0.79,0.63c-1.08,1.42-3.02,2.14-4.81,2.14C215.34,66.53,212.81,64.34,212.81,60.8z M222.99,60.35
					c-0.02-2.75-1.83-4.29-4.51-4.29c-2.3,0-4.29,1.56-4.54,4.29H222.99z"/>
				<path class="st0" d="M227.95,50.57v15.8h-1.11v-15.8H227.95z"/>
				<path class="st0" d="M230.41,60.8c0-3.34,2.53-5.76,5.66-5.76c3.14,0,5.93,1.92,5.51,6.27h-10.04c0.23,2.62,2.23,4.13,4.54,4.13
					c1.47,0,3.18-0.59,4.02-1.69l0.79,0.63c-1.08,1.42-3.03,2.14-4.81,2.14C232.94,66.53,230.41,64.34,230.41,60.8z M240.59,60.35
					c-0.02-2.75-1.83-4.29-4.51-4.29c-2.3,0-4.29,1.56-4.54,4.29H240.59z"/>
				<path class="st0" d="M253.58,64.81c-1.13,1.13-2.59,1.67-4.06,1.67c-3.14,0-5.73-2.17-5.73-5.69s2.51-5.69,5.73-5.69
					c1.47,0,2.93,0.56,4.06,1.67l-0.72,0.7c-0.9-0.9-2.14-1.33-3.34-1.33c-2.53,0-4.65,1.65-4.65,4.65c0,3,2.12,4.65,4.65,4.65
					c1.2,0,2.41-0.47,3.32-1.38L253.58,64.81z"/>
				<path class="st0" d="M258.39,51.86v3.36h3.79v0.93h-3.79v6.79c0,1.51,0.32,2.57,2.05,2.57c0.54,0,1.15-0.18,1.72-0.45l0.38,0.9
					c-0.7,0.34-1.4,0.56-2.1,0.56c-2.37,0-3.14-1.4-3.14-3.59v-6.79h-2.37v-0.93h2.37v-3.25L258.39,51.86z"/>
				<path class="st0" d="M265.76,55.22l0.04,1.99c0.7-1.51,2.28-2.1,3.7-2.1c0.84-0.02,1.65,0.2,2.39,0.65l-0.5,0.9
					c-0.59-0.36-1.24-0.52-1.9-0.52c-2.08,0.02-3.68,1.69-3.68,3.72v6.5h-1.11V55.22H265.76z"/>
				<path class="st0" d="M278.72,66.53c-3.14,0-5.67-2.17-5.67-5.71c0-3.54,2.53-5.8,5.67-5.8c3.14,0,5.66,2.26,5.66,5.8
					C284.38,64.36,281.85,66.53,278.72,66.53z M278.72,65.45c2.53,0,4.58-1.74,4.58-4.63c0-2.89-2.05-4.76-4.58-4.76
					s-4.58,1.87-4.58,4.76C274.13,63.71,276.19,65.45,278.72,65.45z M279.03,53.28l2.01-2.59v-0.02h-1.42l-1.62,2.53v0.09H279.03z"
					/>
				<path class="st0" d="M288.01,55.22v1.99c0.86-1.53,2.41-2.17,3.97-2.19c2.98,0,5.03,1.83,5.03,4.92v6.43h-1.11v-6.41
					c0-2.53-1.56-3.88-3.97-3.86c-2.3,0.02-3.9,1.76-3.9,4.06v6.21h-1.11V55.22H288.01z"/>
				<path class="st0" d="M301.37,51.59c0,1.17-1.78,1.17-1.78,0C299.58,50.41,301.37,50.41,301.37,51.59z M299.9,55.18v11.19h1.11
					V55.18H299.9z"/>
				<path class="st0" d="M313.3,64.81c-1.13,1.13-2.59,1.67-4.06,1.67c-3.14,0-5.73-2.17-5.73-5.69s2.51-5.69,5.73-5.69
					c1.47,0,2.93,0.56,4.06,1.67l-0.72,0.7c-0.9-0.9-2.14-1.33-3.34-1.33c-2.53,0-4.65,1.65-4.65,4.65c0,3,2.12,4.65,4.65,4.65
					c1.2,0,2.41-0.47,3.32-1.38L313.3,64.81z"/>
				<path class="st0" d="M326.28,55.22c0,3.72,0,7.43,0,11.15h-1.11V64c-1.08,1.74-2.75,2.55-4.56,2.55c-3.11,0-5.66-2.35-5.66-5.75
					c0-3.41,2.55-5.71,5.66-5.71c1.81,0,3.63,0.84,4.56,2.57v-2.44H326.28z M316.05,60.8c0,2.8,2.03,4.67,4.56,4.67
					c6.21,0,6.21-9.32,0-9.32C318.08,56.15,316.05,58,316.05,60.8z"/>
				<path class="st0" d="M330.63,65.69c0,1.17-1.78,1.17-1.78,0C328.85,64.52,330.63,64.52,330.63,65.69z"/>
			</g>
		</g>
		<g>
			<g>
				<path class="st0" d="M118.15,36.11v-4.54c-1.94,3.47-5.46,4.9-8.98,4.95c-6.73,0-11.38-4.13-11.38-11.12V10.86h2.5v14.49
					c0,5.71,3.52,8.77,8.98,8.72c5.2-0.05,8.83-3.98,8.83-9.18V10.86h2.5v25.25H118.15z"/>
				<path class="st0" d="M127.84,10.91v4.49c1.94-3.47,5.46-4.9,8.98-4.95c6.73,0,11.38,4.13,11.38,11.12v14.54h-2.5V21.63
					c0-5.71-3.52-8.77-8.98-8.72c-5.2,0.05-8.83,3.98-8.83,9.18v14.03h-2.5v-25.2H127.84z"/>
				<path class="st0" d="M155.43,0.4v35.71h-2.5V0.4H155.43z"/>
				<path class="st0" d="M163.95,2.7c0,2.65-4.03,2.65-4.03,0S163.95,0.05,163.95,2.7z M160.63,10.81v25.3h2.5v-25.3H160.63z"/>
				<path class="st0" d="M205.83,36.11v-15.1c0-4.85-3.26-8.27-8.06-8.27c-4.8,0-8.11,3.57-8.11,8.42v14.95h-2.5V21.17
					c0-4.85-3.32-8.37-8.11-8.37c-4.79,0-8.06,3.52-8.06,8.37v14.95h-2.5v-25.2h2.35l0.05,4.18c1.74-3.32,4.95-4.69,8.21-4.69
					c3.83,0,7.86,1.73,9.34,6.22c1.53-4.13,5.46-6.22,9.34-6.22c6.17,0,10.56,4.34,10.56,10.61v15.1H205.83z"/>
				<path class="st0" d="M216.9,2.7c0,2.65-4.03,2.65-4.03,0S216.9,0.05,216.9,2.7z M213.58,10.81v25.3h2.5v-25.3H213.58z"/>
				<path class="st0" d="M227.2,3.31v7.6h8.57V13h-8.57v15.36c0,3.42,0.71,5.82,4.64,5.82c1.22,0,2.6-0.41,3.88-1.02l0.87,2.04
					c-1.58,0.76-3.16,1.28-4.74,1.28c-5.36,0-7.09-3.16-7.09-8.11V13h-5.36v-2.09h5.36V3.57L227.2,3.31z"/>
				<path class="st0" d="M238.32,23.51c0-7.55,5.71-13.01,12.8-13.01c7.09,0,13.42,4.34,12.45,14.18h-22.7
					c0.51,5.92,5.05,9.34,10.25,9.34c3.32,0,7.19-1.33,9.08-3.83l1.79,1.43c-2.45,3.21-6.84,4.85-10.87,4.85
					C244.03,36.47,238.32,31.52,238.32,23.51z M261.33,22.49c-0.05-6.22-4.13-9.69-10.2-9.69c-5.2,0-9.69,3.52-10.25,9.69H261.33z"
					/>
				<path class="st0" d="M292.44,0.4v35.71h-2.45v-5.56c-2.09,3.83-6.22,5.97-10.51,5.97c-7.04,0-12.6-4.64-12.6-13.01
					c0-8.32,5.61-13.01,12.65-13.01c4.34,0,8.42,1.84,10.46,5.92V0.4H292.44z M269.33,23.51c0,6.99,4.64,10.56,10.31,10.56
					c5.92,0,10.31-4.34,10.31-10.61c0-6.28-4.49-10.56-10.31-10.56C273.98,12.9,269.33,16.42,269.33,23.51z"/>
			</g>
			<g>
				<path class="st0" d="M306.5,3.87v7.14h6.94v5.36h-6.99v10.87c0,2.4,1.33,3.57,3.26,3.57c0.97,0,2.09-0.31,3.01-0.77l1.73,5.31
					c-1.79,0.71-3.26,1.02-5.15,1.07c-5.46,0.2-9.03-2.91-9.03-9.18V16.37h-4.69v-5.36h4.69V4.54L306.5,3.87z"/>
				<path class="st0" d="M321.6,25.76c0.41,3.11,3.11,5.36,7.5,5.36c2.3,0,5.3-0.87,6.73-2.35l3.98,3.93
					c-2.65,2.75-6.99,4.08-10.82,4.08c-8.67,0-13.82-5.36-13.82-13.42c0-7.65,5.2-13.16,13.37-13.16c8.42,0,13.67,5.2,12.7,15.56
					H321.6z M335.27,20.61c-0.41-3.26-2.96-4.9-6.53-4.9c-3.37,0-6.12,1.63-7.04,4.9H335.27z"/>
				<path class="st0" d="M365.83,32.9c-2.91,2.86-5.97,3.98-9.69,3.98c-7.29,0-13.37-4.39-13.37-13.32s6.07-13.31,13.37-13.31
					c3.57,0,6.33,1.02,9.08,3.72l-3.93,4.13c-1.48-1.33-3.31-1.99-5.05-1.99c-4.18,0-7.24,3.06-7.24,7.45c0,4.8,3.26,7.35,7.14,7.35
					c1.99,0,3.98-0.56,5.51-2.09L365.83,32.9z"/>
				<path class="st0" d="M373.02,0.4v13.98c2.24-2.91,5-3.78,7.86-3.78c7.14,0,10.3,4.85,10.3,12.24v13.26h-6.22V22.9
					c0-4.59-2.4-6.53-5.71-6.53c-3.67,0-6.22,3.11-6.22,6.89v12.86h-6.22V0.4H373.02z"/>
			</g>
		</g>
	</g>
</g>
</svg>
